<svg height="512pt" viewBox="0 0 512 512" width="512pt" xmlns="http://www.w3.org/2000/svg"><path d="m416 512h-320c-53.023438 0-96-42.976562-96-96v-320c0-53.023438 42.976562-96 96-96h320c53.023438 0 96 42.976562 96 96v320c0 53.023438-42.976562 96-96 96zm0 0" fill="#e3f8fa"/><g fill="#8ce1eb"><path d="m194.671875 245.328125h-26.671875c-4.414062 0-8 3.582031-8 8v26.671875c0 4.414062 3.585938 8 8 8h26.671875c4.417969 0 8-3.585938 8-8v-26.671875c0-4.417969-3.582031-8-8-8zm0 0"/><path d="m194.671875 309.328125h-26.671875c-4.414062 0-8 3.582031-8 8v26.671875c0 4.414062 3.585938 8 8 8h26.671875c4.417969 0 8-3.585938 8-8v-26.671875c0-4.417969-3.582031-8-8-8zm0 0"/><path d="m269.328125 245.328125h-26.671875c-4.417969 0-8 3.582031-8 8v26.671875c0 4.414062 3.582031 8 8 8h26.671875c4.414063 0 8-3.585938 8-8v-26.671875c0-4.417969-3.585937-8-8-8zm0 0"/></g><path d="m269.328125 309.328125h-26.671875c-4.417969 0-8 3.582031-8 8v26.671875c0 4.414062 3.582031 8 8 8h26.671875c4.414063 0 8-3.585938 8-8v-26.671875c0-4.417969-3.585937-8-8-8zm0 0" fill="#26c6da"/><path d="m344 245.328125h-26.671875c-4.417969 0-8 3.582031-8 8v26.671875c0 4.414062 3.582031 8 8 8h26.671875c4.414062 0 8-3.585938 8-8v-26.671875c0-4.417969-3.585938-8-8-8zm0 0" fill="#8ce1eb"/><path d="m352 160h-192c-17.648438 0-32 14.351562-32 32v160c0 17.648438 14.351562 32 32 32h192c17.648438 0 32-14.351562 32-32v-160c0-17.648438-14.351562-32-32-32zm10.671875 192c0 5.886719-4.785156 10.671875-10.671875 10.671875h-192c-5.886719 0-10.671875-4.785156-10.671875-10.671875v-116.910156h213.328125v116.910156zm0 0" fill="#26c6da"/><path d="m192 128h-10.671875c-5.886719 0-10.671875 4.769531-10.671875 10.671875v42.671875c0 5.886719 4.769531 10.671875 10.671875 10.671875h10.671875c5.886719 0 10.671875-4.769531 10.671875-10.671875v-42.671875c0-5.902344-4.785156-10.671875-10.671875-10.671875zm0 0" fill="#8ce1eb"/><path d="m330.671875 128h-10.671875c-5.886719 0-10.671875 4.769531-10.671875 10.671875v42.671875c0 5.886719 4.785156 10.65625 10.671875 10.65625h10.671875c5.886719 0 10.671875-4.769531 10.671875-10.671875v-42.65625c-.015625-5.902344-4.785156-10.671875-10.671875-10.671875zm0 0" fill="#8ce1eb"/></svg>