<svg xmlns="http://www.w3.org/2000/svg" width="80" height="80" viewBox="0 0 80 80">
  <g id="icn" transform="translate(-871 -6275)">
    <circle id="bg" cx="40" cy="40" r="40" transform="translate(871 6275)" fill="#f4f8fd"/>
    <path id="quotation-mark" d="M62.74,104.471a1.308,1.308,0,0,1-1.564-.109l-.851-1.037a1.207,1.207,0,0,1,.41-1.559q2.3-1.85,3.347-2.862a15.823,15.823,0,0,0,3.041-4.171c.152-.317-.237-.519-.439-.583q-7.548-2.4-7.548-8.448a7.476,7.476,0,0,1,2.444-5.793A8.747,8.747,0,0,1,67.7,77.681a7.548,7.548,0,0,1,5.808,2.9,8.643,8.643,0,0,1,2.473,5.9Q75.985,95.788,62.74,104.471Zm19.15,0a1.308,1.308,0,0,1-1.564-.109l-.851-1.037a1.207,1.207,0,0,1,.41-1.559q2.3-1.85,3.347-2.862a15.828,15.828,0,0,0,3.041-4.171c.152-.317-.237-.519-.439-.583q-7.548-2.4-7.548-8.448a7.476,7.476,0,0,1,2.444-5.793,8.747,8.747,0,0,1,6.125-2.228,7.548,7.548,0,0,1,5.808,2.9,8.644,8.644,0,0,1,2.473,5.9Q95.135,95.788,81.89,104.471Z" transform="translate(833.865 6224.319)" fill="#ffd200"/>
  </g>
</svg>
