<svg enable-background="new 0 0 32 32" height="512" viewBox="0 0 32 32" width="512" xmlns="http://www.w3.org/2000/svg"><path d="m26 32h-20c-3.314 0-6-2.686-6-6v-20c0-3.314 2.686-6 6-6h20c3.314 0 6 2.686 6 6v20c0 3.314-2.686 6-6 6z" fill="#e3f8fa"/><path d="m18.333 16.667c-.713 0-1.367-.413-1.667-1.06l-.666-1.434-.667 1.433c-.3.647-.953 1.06-1.667 1.06h-4.34v4.167c0 .233.167.44.4.487l6.16 1.333c.033.007.067.013.107.013h.007.007c.033 0 .067-.007.107-.013l6.16-1.333c.227-.047.393-.253.393-.487v-4.167h-4.334z" fill="#26c6da"/><g fill="#8ce1eb"><path d="m23.5 15.333h-5.168c-.194 0-.371-.113-.453-.289l-2.33-5c-.08-.172-.056-.375.062-.523.119-.148.312-.218.496-.176l6.164 1.333c.168.036.305.156.364.318l1.334 3.667c.056.153.034.324-.06.458-.093.133-.246.212-.409.212z"/><path d="m13.668 15.333h-5.168c-.163 0-.316-.079-.41-.213-.094-.133-.116-.304-.06-.458l1.334-3.667c.059-.161.196-.282.364-.318l6.164-1.333c.186-.041.378.028.496.176s.143.351.062.523l-2.33 5c-.081.178-.257.29-.452.29z"/></g></svg>