<svg id="bold" enable-background="new 0 0 32 32" height="512" viewBox="0 0 32 32" width="512" xmlns="http://www.w3.org/2000/svg"><path d="m26 32h-20c-3.314 0-6-2.686-6-6v-20c0-3.314 2.686-6 6-6h20c3.314 0 6 2.686 6 6v20c0 3.314-2.686 6-6 6z" fill="#e3f8fa"/><g fill="#26c6da"><path d="m18.667 10.333v-.333c0-1.1-.9-2-2-2h-6.667c-1.1 0-2 .9-2 2v12c0 1.1.9 2 2 2h6.667c1.1 0 2-.9 2-2v-4.333h-1.333v3.667h-8v-11.334c0-.367.3-.667.667-.667h6.667c.367 0 .667.3.667.667v.333z"/><circle cx="13.333" cy="17.333" r="1.333"/><path d="m16 21.167v.167h-5.333v-.167c0-1.013.82-1.833 1.833-1.833h1.667c1.013-.001 1.833.819 1.833 1.833z"/></g><path d="m23.5 16.667c-.106 0-.212-.034-.3-.1l-1.211-.908c-.077.569-.566 1.008-1.156 1.008h-3.667c-.643 0-1.166-.524-1.166-1.167v-3.167c0-.461.306-1 1.167-1h3.667c.621 0 1.131.488 1.165 1.101l1.182-.985c.148-.125.356-.151.532-.069.175.083.287.259.287.453v4.333c0 .189-.107.363-.276.447-.071.036-.148.054-.224.054z" fill="#8ce1eb"/></svg>