<svg xmlns="http://www.w3.org/2000/svg" width="40.759" height="44.488" viewBox="0 0 40.759 44.488">
  <g id="website-logo" transform="translate(580.262 674.314)">
    <path id="Path_18" data-name="Path 18" d="M-418.836-674.314v17.381a13.536,13.536,0,0,1-13.554,13.554,13.536,13.536,0,0,1-13.554-13.554h9.036a4.531,4.531,0,0,0,4.518,4.518,4.531,4.531,0,0,0,4.518-4.518v-17.381Z" transform="translate(-127.492)" fill="#00214d"/>
    <path id="Path_19" data-name="Path 19" d="M-573.924,369.01l-3.51,3.51a24.83,24.83,0,0,0,35.1,0l-3.51-3.51A19.851,19.851,0,0,1-573.924,369.01Z" transform="translate(0 -1011.613)" fill="#00214d" stroke="#00214d" stroke-linecap="square" stroke-width="4"/>
  </g>
</svg>
